# xmcd CD database file
#
# Track frame offsets:
#	150
#	41804
#	65371
#	69753
#	103444
#	126211
#	154247
#	176010
#	196047
#	223192
#	256809
#
# Disc length: 3783 seconds
#
# Revision: 0
# Processed by: cddbd v1.5.2PL0 Copyright (c) Steve Scherf et al.
# Submitted via: CDex 1.51
#
DISCID=a00ec50b
DTITLE=Jean-Luc Fillon - Oborigins
DYEAR=2008
DGENRE=Jazz
TTITLE0=Miss Shangaï
TTITLE1=Bemsha
TTITLE2=OX
TTITLE3=Orient-Xpress
TTITLE4=Miss Trall
TTITLE5=100 Cibles
TTITLE6=Poseïdos
TTITLE7=Pagode
TTITLE8=Eternal Child
TTITLE9=Boléro for João
TTITLE10=Druidos
EXTD=YEAR: 2008
EXTT0=
EXTT1=
EXTT2=
EXTT3=
EXTT4=
EXTT5=
EXTT6=
EXTT7=
EXTT8=
EXTT9=
EXTT10=
PLAYORDER=
